<?xml version="1.0" standalone="no"?>
<!DOCTYPE svg PUBLIC "-//W3C//DTD SVG 20010904//EN"
 "http://www.w3.org/TR/2001/REC-SVG-20010904/DTD/svg10.dtd">
<svg version="1.0" xmlns="http://www.w3.org/2000/svg"
 width="500.000000pt" height="500.000000pt" viewBox="0 0 500.000000 500.000000"
 preserveAspectRatio="xMidYMid meet">

<g transform="translate(0.000000,500.000000) scale(0.100000,-0.100000)"
fill="#000000" stroke="none">
<path d="M2095 3286 c-70 -32 -95 -83 -95 -200 l0 -83 53 -7 c28 -4 72 -16 96
-27 24 -10 45 -19 47 -19 2 0 4 34 4 75 l0 75 550 0 550 0 0 -450 0 -450 -100
0 -100 0 0 100 0 100 -200 0 -200 0 0 -100 0 -100 -116 0 -115 0 35 -43 c20
-24 47 -69 62 -101 l26 -57 403 3 c390 3 405 4 431 24 15 11 37 33 48 48 21
27 21 38 21 576 0 538 0 549 -21 576 -11 15 -33 37 -48 48 -27 21 -38 21 -664
23 -516 2 -643 0 -667 -11z"/>
<path d="M1920 2887 c-65 -18 -115 -52 -156 -105 -116 -152 -62 -368 111 -452
70 -33 180 -34 249 0 188 91 229 336 81 485 -70 69 -188 99 -285 72z"/>
<path d="M1771 2190 c-97 -20 -198 -105 -241 -202 -52 -117 -30 -227 54 -267
40 -20 59 -21 416 -21 357 0 376 1 416 21 32 15 48 32 65 66 20 42 22 52 12
110 -22 124 -89 216 -197 267 -66 31 -137 37 -234 19 -44 -9 -79 -9 -120 -2
-94 17 -125 18 -171 9z"/>
</g>
</svg>
