<?xml version="1.0" standalone="no"?>
<!DOCTYPE svg PUBLIC "-//W3C//DTD SVG 20010904//EN"
 "http://www.w3.org/TR/2001/REC-SVG-20010904/DTD/svg10.dtd">
<svg version="1.0" xmlns="http://www.w3.org/2000/svg"
 width="500.000000pt" height="500.000000pt" viewBox="0 0 500.000000 500.000000"
 preserveAspectRatio="xMidYMid meet">

<g transform="translate(0.000000,500.000000) scale(0.100000,-0.100000)"
fill="#000000" stroke="none">
<path d="M1949 3357 c-9 -7 -111 -153 -227 -326 -253 -375 -246 -354 -149
-459 172 -188 843 -900 866 -919 29 -25 74 -29 107 -10 33 19 935 979 946
1007 5 13 6 35 3 49 -7 26 -381 585 -429 638 l-28 33 -537 0 c-405 -1 -540 -4
-552 -13z m849 -176 c-5 -13 -292 -380 -298 -380 -6 0 -293 366 -298 380 -2 5
120 9 298 9 171 0 300 -4 298 -9z m-634 -256 l135 -170 -266 -3 c-146 -1 -268
0 -270 2 -3 3 50 86 118 186 101 150 124 179 135 168 7 -7 74 -89 148 -183z
m960 5 l116 -175 -135 -3 c-74 -1 -196 -1 -271 0 l-136 3 147 184 c81 100 150
179 155 175 4 -5 60 -88 124 -184z m-1 -413 c-86 -98 -617 -657 -623 -657 -6
0 -524 546 -624 658 l-38 42 662 0 662 0 -39 -43z"/>
</g>
</svg>
