<?xml version="1.0" standalone="no"?>
<!DOCTYPE svg PUBLIC "-//W3C//DTD SVG 20010904//EN"
 "http://www.w3.org/TR/2001/REC-SVG-20010904/DTD/svg10.dtd">
<svg version="1.0" xmlns="http://www.w3.org/2000/svg"
 width="500.000000pt" height="500.000000pt" viewBox="0 0 500.000000 500.000000"
 preserveAspectRatio="xMidYMid meet">

<g transform="translate(0.000000,500.000000) scale(0.100000,-0.100000)"
fill="#000000" stroke="none">
<path d="M2398 3484 c-82 -19 -134 -48 -199 -111 -101 -96 -138 -206 -139
-410 l0 -92 -159 -3 -159 -3 -38 -30 c-77 -63 -74 -44 -74 -561 0 -524 0 -523
78 -626 39 -52 60 -70 126 -103 l79 -40 541 -3 c373 -3 561 0 606 8 97 16 175
63 232 138 78 103 78 102 78 626 0 517 3 498 -74 561 l-38 30 -159 3 -159 3 0
92 c0 234 -62 370 -213 468 -61 39 -165 70 -234 68 -21 0 -64 -7 -95 -15z
m207 -193 c51 -23 118 -98 133 -149 7 -22 12 -92 12 -156 l0 -116 -250 0 -250
0 0 116 c0 64 5 134 12 156 15 51 77 120 130 147 56 27 156 28 213 2z m-377
-636 c50 -58 8 -155 -68 -155 -71 0 -117 66 -90 131 26 62 113 75 158 24z
m661 21 c56 -29 67 -102 22 -147 -42 -42 -99 -41 -135 2 -70 83 16 195 113
145z"/>
</g>
</svg>
